Coordinates
version=1
nRows=22
nColumns=24
inDegrees=yes

Units are S.I. units (second, meters, Newtons, ...)
Angles are in degrees.

endheader
time	pelvis_tilt	pelvis_list	pelvis_rotation	pelvis_tx	pelvis_ty	pelvis_tz	hip_flexion_r	hip_adduction_r	hip_rotation_r	knee_angle_r	ankle_angle_r	subtalar_angle_r	mtp_angle_r	hip_flexion_l	hip_adduction_l	hip_rotation_l	knee_angle_l	ankle_angle_l	subtalar_angle_l	mtp_angle_l	lumbar_extension	lumbar_bending	lumbar_rotation
      3.96500000	     -9.73020445	      0.50458346	      1.44976216	     -1.86176054	     -0.02226578	     -0.67494836	     32.22560592	     -2.50173116	    -14.69213258	    -11.30201856	     -5.66895332	     -1.57249258	     11.40969942	     -4.04332133	      2.62892736	    -11.94195550	    -12.88067905	     12.03844055	      3.31297758	      5.11874630	      6.61058301	      1.84400598	     -7.03225732
      3.97000000	     -9.76324310	      0.40755170	      1.52039642	     -1.85578151	     -0.02294597	     -0.67416367	     32.27246812	     -2.35071317	    -14.06670667	    -11.93863777	     -5.88925779	     -2.40959612	     10.20258417	     -4.07535201	      2.35764347	    -11.88486360	    -13.52264501	     11.94472839	      3.55678220	      4.90779493	      6.75778421	      1.97094441	     -7.17840924
      3.97500000	     -9.79962278	      0.24272253	      1.69182637	     -1.84962797	     -0.02357014	     -0.67354527	     32.29078412	     -2.22278585	    -13.86539587	    -12.54493395	     -6.24782414	     -3.17215314	      9.81720854	     -4.09754523	      2.01719482	    -11.65666098	    -14.16443053	     11.75934387	      3.67388048	      4.85771581	      6.94633215	      2.16358205	     -7.45278482
      3.98000000	     -9.86120071	      0.13911666	      1.59360611	     -1.84352864	     -0.02424190	     -0.67243299	     32.37237548	     -1.96092312	    -13.15868896	    -13.16133543	     -6.72073407	     -4.29359726	      8.54900972	     -4.09328999	      1.72726154	    -11.83401399	    -14.83594389	     11.57960175	      3.94954798	      4.65813553	      7.13699438	      2.31291706	     -7.39196522
      3.98500000	     -9.91563444	     -0.03937591	      1.65769463	     -1.83739247	     -0.02477785	     -0.67151344	     32.39406024	     -1.73492914	    -12.77387639	    -13.72994461	     -7.16621404	     -5.29502654	      7.24470840	     -4.04006786	      1.34662126	    -11.78691519	    -15.58532638	     11.33516938	      4.14346203	      4.50426426	      7.33462917	      2.51571428	     -7.51870260
      3.99000000	     -9.95908518	     -0.24740060	      1.82389781	     -1.83124860	     -0.02520722	     -0.67081321	     32.39465903	     -1.58850745	    -12.79014909	    -14.27577146	     -7.65098192	     -6.10739306	      6.78002915	     -3.96537173	      0.94249177	    -11.55273817	    -16.36393014	     11.01441578	      4.24142325	      4.45593692	      7.52480756	      2.74788829	     -7.77445726
      3.99500000	    -10.03958807	     -0.46506334	      1.70074619	     -1.82503246	     -0.02565448	     -0.66959942	     32.45136891	     -1.21622880	    -12.27942333	    -14.83281386	     -8.03267773	     -7.17902200	      4.87723558	     -3.85651784	      0.49978253	    -11.81834173	    -17.18455734	     10.72699701	      4.54181437	      4.30021097	      7.75644857	      3.01971275	     -7.72383795
      4.00000000	    -10.07648159	     -0.67010397	      1.83688016	     -1.81889433	     -0.02586755	     -0.66879082	     32.42177681	     -1.05517264	    -12.32196084	    -15.32020238	     -8.46565220	     -8.11534052	      4.51934038	     -3.73281755	      0.09400043	    -11.56984987	    -18.03709079	     10.22260787	      4.54646233	      4.23282421	      7.94121624	      3.23778718	     -7.93291228
      4.00500000	    -10.15229844	     -0.85882124	      1.71065987	     -1.81280951	     -0.02612589	     -0.66758128	     32.46811563	     -0.72158780	    -11.86445642	    -15.84128431	     -8.82017580	     -9.24969124	      3.36096897	     -3.54880710	     -0.32338175	    -11.79900642	    -18.96600359	      9.78438108	      4.76784897	      4.14745015	      8.13524831	      3.48838531	     -7.84915198
      4.01000000	    -10.19548672	     -1.11389612	      1.79029937	     -1.80661705	     -0.02614698	     -0.66672695	     32.40780399	     -0.47503953	    -11.85803949	    -16.29227940	     -9.03760449	    -10.06448579	      2.89551502	     -3.33770252	     -0.79508727	    -11.66178707	    -19.95078270	      9.17131262	      4.71935483	      4.06052105	      8.33679323	      3.78095818	     -8.05226684
      4.01500000	    -10.23771927	     -1.32582754	      1.70681745	     -1.80045128	     -0.02611756	     -0.66551251	     32.37606299	     -0.12515677	    -11.47454129	    -16.84565834	     -8.90475559	    -10.82663703	      0.82049386	     -3.10840781	     -1.26423752	    -11.89778807	    -20.98692592	      8.53373778	      4.88388479	      4.02473452	      8.51718577	      4.04289911	     -8.03412903
      4.02000000	    -10.27310515	     -1.49739034	      1.68347619	     -1.79430349	     -0.02596071	     -0.66447236	     32.29797131	      0.12812371	    -11.25968662	    -17.29057213	     -8.95724640	    -11.61448750	      0.53778642	     -2.83944063	     -1.66498245	    -11.93830003	    -22.06460049	      7.73121281	      4.81156640	      3.92833088	      8.69178769	      4.26071629	     -8.09366451
      4.02500000	    -10.28912575	     -1.69239757	      1.62982909	     -1.78803542	     -0.02567476	     -0.66342295	     32.16748975	      0.42025145	    -11.13554943	    -17.70425016	     -8.89602322	    -12.21226364	      0.28750894	     -2.56938703	     -2.09671458	    -12.03233449	    -23.17446988	      6.81726801	      4.68395966	      3.80847137	      8.86577957	      4.51430492	     -8.08491896
      4.03000000	    -10.32779539	     -1.82136912	      1.46596433	     -1.78200340	     -0.02540365	     -0.66205205	     32.08285471	      0.76410392	    -10.63915022	    -18.16561743	     -8.64593607	    -12.80133187	     -1.01455553	     -2.20306266	     -2.51019319	    -12.36728162	    -24.39944674	      5.84046377	      4.70292168	      4.02618034	      9.00702296	      4.69932688	     -7.97358949
      4.03500000	    -10.27708254	     -1.98112962	      1.44435441	     -1.77581382	     -0.02487201	     -0.66102641	     31.81442850	      1.02387395	    -10.51550853	    -18.48618951	     -8.43918453	    -13.20063196	     -1.13173474	     -1.90114799	     -2.91653541	    -12.40807765	    -25.62383397	      4.68408647	      4.42512272	      3.88429335	      9.09919781	      4.90795810	     -8.02165987
      4.04000000	    -10.26436931	     -2.06311880	      1.36111345	     -1.76987215	     -0.02436579	     -0.65982082	     31.59612476	      1.27786714	    -10.14839224	    -18.79953523	     -8.23706197	    -13.73432511	     -1.53917411	     -1.48581881	     -3.25826031	    -12.52070176	    -26.93815456	      3.40793235	      4.12233772	      3.94616364	      9.17789369	      5.03745785	     -8.00633503
      4.04500000	    -10.23106041	     -2.18032179	      1.25148914	     -1.76390350	     -0.02376486	     -0.65866704	     31.31759176	      1.56769674	     -9.87212943	    -19.04976946	     -8.01275274	    -14.06808476	     -1.92161099	     -1.06104194	     -3.63763739	    -12.65642589	    -28.28292649	      1.99071723	      3.72320494	      4.05445907	      9.23731549	      5.22435857	     -7.92598890
      4.05000000	    -10.23841829	     -2.29244001	      1.10152465	     -1.75787392	     -0.02321663	     -0.65729990	     31.06154695	      1.89624456	     -9.55510856	    -19.29928344	     -7.56943731	    -14.25679596	     -2.94289174	     -0.57651922	     -4.05975097	    -12.93793400	    -29.61087560	      0.27617201	      3.31459839	      5.15042823	      9.35665213	      5.37949070	     -7.81776336
      4.05500000	    -10.13566274	     -2.43071449	      1.01993759	     -1.75197601	     -0.02250571	     -0.65618277	     30.63328203	      2.19348682	     -9.38847690	    -19.41249417	     -7.33425135	    -14.51479918	     -2.95867845	     -0.14026075	     -4.46808960	    -13.01598690	    -31.04730086	     -1.24967318	      2.80498153	      4.97433480	      9.33625099	      5.57063336	     -7.76547551
      4.06000000	    -10.08001402	     -2.52412508	      0.92403285	     -1.74624952	     -0.02184849	     -0.65506329	     30.25845054	      2.45441747	     -9.16131763	    -19.51808557	     -7.09244526	    -14.76765123	     -3.03679180	      0.39420696	     -4.81843696	    -13.05886126	    -32.51121928	     -2.90275341	      2.18719340	      4.93980816	      9.33625490	      5.72656382	     -7.68973990
      4.06500000	    -10.12918934	     -2.61813526	      0.79418926	     -1.74050187	     -0.02135957	     -0.65383671	     29.99233669	      2.72749826	     -8.95287408	    -19.63834048	     -6.67313535	    -14.81764568	     -3.43575090	      1.05368592	     -5.18828069	    -13.15306234	    -33.93738889	     -4.85973814	      1.43350418	      6.11792508	      9.45884311	      5.86853910	     -7.56786413
      4.07000000	    -10.01635848	     -2.77995388	      0.71235523	     -1.73486569	     -0.02064208	     -0.65276460	     29.49085184	      3.04564641	     -8.82238177	    -19.61973944	     -6.45717692	    -15.01962192	     -3.45012822	      1.58762980	     -5.60845948	    -13.13386876	    -35.45512732	     -6.45590460	      0.80159574	      5.93872930	      9.38602826	      6.08950484	     -7.48831062
